<svg width="446" height="128" viewBox="0 0 446 128" fill="none" xmlns="http://www.w3.org/2000/svg">
<path d="M73.8707 30.9588C73.0793 30.5692 72.0504 30.5692 69.9952 30.5692H36.4043C34.3491 30.5692 33.3202 30.5692 32.5288 30.1796C31.7705 29.8054 31.1603 29.1902 30.7876 28.4289C30.3995 27.6343 30.3995 26.5988 30.3995 24.5302V6.03644C30.3995 3.9679 30.3995 2.93491 30.0114 2.13774C29.6412 1.37646 29.0285 0.761283 28.2702 0.38705C27.4813 0 26.4524 0 24.3947 0H6.00484C3.94706 0 2.91817 0 2.12927 0.389613C1.371 0.763846 0.760817 1.37902 0.388068 2.14031C0 2.93491 0 3.97046 0 6.039V100.961C0 103.03 0 104.063 0.388068 104.86C0.758264 105.621 1.371 106.236 2.12927 106.61C2.92072 107 3.94961 107 6.00484 107H69.9952C72.0504 107 73.0793 107 73.8707 106.61C74.629 106.236 75.2417 105.621 75.6119 104.86C76 104.065 76 103.03 76 100.961V36.6108C76 34.5423 76 33.5093 75.6119 32.7121C75.2417 31.9508 74.629 31.3356 73.8707 30.9614V30.9588Z" fill="#0000FF"/>
<path d="M156.9 100.4C151.5 100.4 146.733 99.4333 142.6 97.5C138.467 95.5667 135.233 92.8 132.9 89.2C130.567 85.6 129.4 81.2667 129.4 76.2V73.4H142.4V76.2C142.4 80.4 143.7 83.5667 146.3 85.7C148.9 87.7667 152.433 88.8 156.9 88.8C161.433 88.8 164.8 87.9 167 86.1C169.267 84.3 170.4 82 170.4 79.2C170.4 77.2667 169.833 75.7 168.7 74.5C167.633 73.3 166.033 72.3333 163.9 71.6C161.833 70.8 159.3 70.0667 156.3 69.4L154 68.9C149.2 67.8333 145.067 66.5 141.6 64.9C138.2 63.2333 135.567 61.0667 133.7 58.4C131.9 55.7333 131 52.2667 131 48C131 43.7333 132 40.1 134 37.1C136.067 34.0333 138.933 31.7 142.6 30.1C146.333 28.4333 150.7 27.6 155.7 27.6C160.7 27.6 165.133 28.4667 169 30.2C172.933 31.8667 176 34.4 178.2 37.8C180.467 41.1333 181.6 45.3333 181.6 50.4V53.4H168.6V50.4C168.6 47.7333 168.067 45.6 167 44C166 42.3333 164.533 41.1333 162.6 40.4C160.667 39.6 158.367 39.2 155.7 39.2C151.7 39.2 148.733 39.9667 146.8 41.5C144.933 42.9667 144 45 144 47.6C144 49.3333 144.433 50.8 145.3 52C146.233 53.2 147.6 54.2 149.4 55C151.2 55.8 153.5 56.5 156.3 57.1L158.6 57.6C163.6 58.6667 167.933 60.0333 171.6 61.7C175.333 63.3667 178.233 65.5667 180.3 68.3C182.367 71.0333 183.4 74.5333 183.4 78.8C183.4 83.0667 182.3 86.8333 180.1 90.1C177.967 93.3 174.9 95.8333 170.9 97.7C166.967 99.5 162.3 100.4 156.9 100.4ZM212.645 99C209.378 99 206.711 98 204.645 96C202.645 93.9333 201.645 91.2 201.645 87.8V59.8H189.245V49.4H201.645V34H214.245V49.4H227.845V59.8H214.245V85.6C214.245 87.6 215.178 88.6 217.045 88.6H226.645V99H212.645ZM258.15 99.8C254.283 99.8 250.883 98.9333 247.95 97.2C245.083 95.4 242.85 92.9333 241.25 89.8C239.65 86.6667 238.85 83.0667 238.85 79V49.4H251.45V78C251.45 81.7333 252.35 84.5333 254.15 86.4C256.017 88.2667 258.65 89.2 262.05 89.2C265.917 89.2 268.917 87.9333 271.05 85.4C273.183 82.8 274.25 79.2 274.25 74.6V49.4H286.85V99H274.45V92.5H272.65C271.85 94.1667 270.35 95.8 268.15 97.4C265.95 99 262.617 99.8 258.15 99.8ZM320.871 100.4C316.938 100.4 313.238 99.4333 309.771 97.5C306.371 95.5 303.638 92.6 301.571 88.8C299.504 85 298.471 80.4 298.471 75V73.4C298.471 68 299.504 63.4 301.571 59.6C303.638 55.8 306.371 52.9333 309.771 51C313.171 49 316.871 48 320.871 48C323.871 48 326.371 48.3667 328.371 49.1C330.438 49.7667 332.104 50.6333 333.371 51.7C334.638 52.7667 335.604 53.9 336.271 55.1H338.071V29H350.671V99H338.271V93H336.471C335.338 94.8667 333.571 96.5667 331.171 98.1C328.838 99.6333 325.404 100.4 320.871 100.4ZM324.671 89.4C328.538 89.4 331.771 88.1667 334.371 85.7C336.971 83.1667 338.271 79.5 338.271 74.7V73.7C338.271 68.9 336.971 65.2667 334.371 62.8C331.838 60.2667 328.604 59 324.671 59C320.804 59 317.571 60.2667 314.971 62.8C312.371 65.2667 311.071 68.9 311.071 73.7V74.7C311.071 79.5 312.371 83.1667 314.971 85.7C317.571 88.1667 320.804 89.4 324.671 89.4ZM364.641 99V49.4H377.241V99H364.641ZM370.941 43.6C368.674 43.6 366.741 42.8667 365.141 41.4C363.607 39.9333 362.841 38 362.841 35.6C362.841 33.2 363.607 31.2667 365.141 29.8C366.741 28.3333 368.674 27.6 370.941 27.6C373.274 27.6 375.207 28.3333 376.741 29.8C378.274 31.2667 379.041 33.2 379.041 35.6C379.041 38 378.274 39.9333 376.741 41.4C375.207 42.8667 373.274 43.6 370.941 43.6ZM414.803 100.4C409.87 100.4 405.436 99.4 401.503 97.4C397.57 95.4 394.47 92.5 392.203 88.7C389.936 84.9 388.803 80.3333 388.803 75V73.4C388.803 68.0667 389.936 63.5 392.203 59.7C394.47 55.9 397.57 53 401.503 51C405.436 49 409.87 48 414.803 48C419.736 48 424.17 49 428.103 51C432.036 53 435.136 55.9 437.403 59.7C439.67 63.5 440.803 68.0667 440.803 73.4V75C440.803 80.3333 439.67 84.9 437.403 88.7C435.136 92.5 432.036 95.4 428.103 97.4C424.17 99.4 419.736 100.4 414.803 100.4ZM414.803 89.2C418.67 89.2 421.87 87.9667 424.403 85.5C426.936 82.9667 428.203 79.3667 428.203 74.7V73.7C428.203 69.0333 426.936 65.4667 424.403 63C421.936 60.4667 418.736 59.2 414.803 59.2C410.936 59.2 407.736 60.4667 405.203 63C402.67 65.4667 401.403 69.0333 401.403 73.7V74.7C401.403 79.3667 402.67 82.9667 405.203 85.5C407.736 87.9667 410.936 89.2 414.803 89.2Z" fill="black"/>
</svg>
